HIERARCHY
ROOT mixamorig:Hips
{
	OFFSET 0.000000 104.274902 0.000000
	CHANNELS 6 Xposition Yposition Zposition Xrotation Yrotation Zrotation
	JOINT mixamorig:Spine
	{
		OFFSET 0.000000 10.181549 0.131524
		CHANNELS 6 Xposition Yposition Zposition Xrotation Yrotation Zrotation
		JOINT mixamorig:Spine1
		{
			OFFSET 0.000000 9.893990 -1.470706
			CHANNELS 3 Xrotation Yrotation Zrotation
			JOINT mixamorig:Spine2
			{
				OFFSET 0.000000 9.220787 -1.370637
				CHANNELS 3 Xrotation Yrotation Zrotation
				JOINT mixamorig:Neck
				{
					OFFSET 0.000000 16.740372 -2.049022
					CHANNELS 6 Xposition Yposition Zposition Xrotation Yrotation Zrotation
					JOINT mixamorig:Head
					{
						OFFSET 0.000000 9.617859 1.684976
						CHANNELS 6 Xposition Yposition Zposition Xrotation Yrotation Zrotation
						JOINT mixamorig:HeadTop_End
						{
							OFFSET 0.000000 22.037384 7.501072
							CHANNELS 6 Xposition Yposition Zposition Xrotation Yrotation Zrotation
							End Site
							{
								OFFSET 0.000000 23.106567 -2.828246
							}
						}
					}
				}
				JOINT mixamorig:RightShoulder
				{
					OFFSET -4.570000 11.014877 -2.160840
					CHANNELS 6 Xposition Yposition Zposition Xrotation Yrotation Zrotation
					JOINT mixamorig:RightArm
					{
						OFFSET -10.592867 -0.524796 -2.232105
						CHANNELS 3 Xrotation Yrotation Zrotation
						JOINT mixamorig:RightForeArm
						{
							OFFSET -27.841497 0.000000 -0.000002
							CHANNELS 3 Xrotation Yrotation Zrotation
							JOINT mixamorig:RightHand
							{
								OFFSET -28.328812 0.000000 -0.000001
								CHANNELS 3 Xrotation Yrotation Zrotation
								JOINT mixamorig:RightHandThumb1
								{
									OFFSET -2.464798 -1.573990 2.681911
									CHANNELS 6 Xposition Yposition Zposition Xrotation Yrotation Zrotation
									JOINT mixamorig:RightHandThumb2
									{
										OFFSET -3.244781 -1.873383 1.873376
										CHANNELS 3 Xrotation Yrotation Zrotation
										JOINT mixamorig:RightHandThumb3
										{
											OFFSET -2.646263 -1.527817 1.527818
											CHANNELS 6 Xposition Yposition Zposition Xrotation Yrotation Zrotation
											JOINT mixamorig:RightHandThumb4
											{
												OFFSET -1.994591 -1.151581 1.151575
												CHANNELS 6 Xposition Yposition Zposition Xrotation Yrotation Zrotation
												End Site
												{
													OFFSET -1.860176 -1.142715 1.365483
												}
											}
										}
									}
								}
								JOINT mixamorig:RightHandIndex1
								{
									OFFSET -9.108299 -0.517883 2.259803
									CHANNELS 6 Xposition Yposition Zposition Xrotation Yrotation Zrotation
									JOINT mixamorig:RightHandIndex2
									{
										OFFSET -3.699997 0.000000 0.000000
										CHANNELS 3 Xrotation Yrotation Zrotation
										JOINT mixamorig:RightHandIndex3
										{
											OFFSET -2.850006 0.000000 0.000000
											CHANNELS 3 Xrotation Yrotation Zrotation
											JOINT mixamorig:RightHandIndex4
											{
												OFFSET -2.772194 0.000000 0.000000
												CHANNELS 3 Xrotation Yrotation Zrotation
												End Site
												{
													OFFSET -2.772202 0.000000 -0.000484
												}
											}
										}
									}
								}
								JOINT mixamorig:RightHandMiddle1
								{
									OFFSET -9.532501 0.000000 -0.000000
									CHANNELS 6 Xposition Yposition Zposition Xrotation Yrotation Zrotation
									JOINT mixamorig:RightHandMiddle2
									{
										OFFSET -3.699997 0.000000 0.000000
										CHANNELS 3 Xrotation Yrotation Zrotation
										JOINT mixamorig:RightHandMiddle3
										{
											OFFSET -2.949997 0.000000 0.000000
											CHANNELS 3 Xrotation Yrotation Zrotation
											JOINT mixamorig:RightHandMiddle4
											{
												OFFSET -2.946594 0.000000 0.000000
												CHANNELS 3 Xrotation Yrotation Zrotation
												End Site
												{
													OFFSET -2.946602 0.000000 -0.000982
												}
											}
										}
									}
								}
								JOINT mixamorig:RightHandRing1
								{
									OFFSET -9.103600 -0.043106 -1.865100
									CHANNELS 6 Xposition Yposition Zposition Xrotation Yrotation Zrotation
									JOINT mixamorig:RightHandRing2
									{
										OFFSET -3.379303 0.000000 0.000000
										CHANNELS 3 Xrotation Yrotation Zrotation
										JOINT mixamorig:RightHandRing3
										{
											OFFSET -2.889694 0.000000 0.000000
											CHANNELS 3 Xrotation Yrotation Zrotation
											JOINT mixamorig:RightHandRing4
											{
												OFFSET -2.638802 0.000000 0.000000
												CHANNELS 3 Xrotation Yrotation Zrotation
												End Site
												{
													OFFSET -2.638802 0.000000 0.004218
												}
											}
										}
									}
								}
								JOINT mixamorig:RightHandPinky1
								{
									OFFSET -8.076698 -0.486725 -3.806299
									CHANNELS 6 Xposition Yposition Zposition Xrotation Yrotation Zrotation
									JOINT mixamorig:RightHandPinky2
									{
										OFFSET -3.600006 0.000000 0.000000
										CHANNELS 3 Xrotation Yrotation Zrotation
										JOINT mixamorig:RightHandPinky3
										{
											OFFSET -2.099998 0.000000 0.000000
											CHANNELS 3 Xrotation Yrotation Zrotation
											JOINT mixamorig:RightHandPinky4
											{
												OFFSET -2.115791 0.000000 0.000000
												CHANNELS 3 Xrotation Yrotation Zrotation
												End Site
												{
													OFFSET -2.115799 0.000000 0.000174
												}
											}
										}
									}
								}
							}
						}
					}
				}
				JOINT mixamorig:LeftShoulder
				{
					OFFSET 4.570400 11.014679 -2.160816
					CHANNELS 6 Xposition Yposition Zposition Xrotation Yrotation Zrotation
					JOINT mixamorig:LeftArm
					{
						OFFSET 10.592373 -0.524597 -2.232116
						CHANNELS 3 Xrotation Yrotation Zrotation
						JOINT mixamorig:LeftForeArm
						{
							OFFSET 27.841488 0.000000 0.000001
							CHANNELS 3 Xrotation Yrotation Zrotation
							JOINT mixamorig:LeftHand
							{
								OFFSET 28.328808 0.000000 -0.000000
								CHANNELS 3 Xrotation Yrotation Zrotation
								JOINT mixamorig:LeftHandThumb1
								{
									OFFSET 2.466103 -1.576202 2.681698
									CHANNELS 6 Xposition Yposition Zposition Xrotation Yrotation Zrotation
									JOINT mixamorig:LeftHandThumb2
									{
										OFFSET 3.243317 -1.872528 1.872530
										CHANNELS 3 Xrotation Yrotation Zrotation
										JOINT mixamorig:LeftHandThumb3
										{
											OFFSET 2.647881 -1.528763 1.528754
											CHANNELS 6 Xposition Yposition Zposition Xrotation Yrotation Zrotation
											JOINT mixamorig:LeftHandThumb4
											{
												OFFSET 1.998924 -1.154083 1.154080
												CHANNELS 6 Xposition Yposition Zposition Xrotation Yrotation Zrotation
												End Site
												{
													OFFSET 1.884041 -1.149155 1.337651
												}
											}
										}
									}
								}
								JOINT mixamorig:LeftHandIndex1
								{
									OFFSET 9.109299 -0.518005 2.259900
									CHANNELS 6 Xposition Yposition Zposition Xrotation Yrotation Zrotation
									JOINT mixamorig:LeftHandIndex2
									{
										OFFSET 3.699997 0.000000 0.000000
										CHANNELS 3 Xrotation Yrotation Zrotation
										JOINT mixamorig:LeftHandIndex3
										{
											OFFSET 2.850006 0.000000 0.000000
											CHANNELS 3 Xrotation Yrotation Zrotation
											JOINT mixamorig:LeftHandIndex4
											{
												OFFSET 2.774895 0.000000 0.000000
												CHANNELS 3 Xrotation Yrotation Zrotation
												End Site
												{
													OFFSET 2.774902 0.000000 -0.000072
												}
											}
										}
									}
								}
								JOINT mixamorig:LeftHandMiddle1
								{
									OFFSET 9.533401 0.000000 0.000000
									CHANNELS 6 Xposition Yposition Zposition Xrotation Yrotation Zrotation
									JOINT mixamorig:LeftHandMiddle2
									{
										OFFSET 3.699997 0.000000 0.000000
										CHANNELS 3 Xrotation Yrotation Zrotation
										JOINT mixamorig:LeftHandMiddle3
										{
											OFFSET 2.949997 0.000000 0.000000
											CHANNELS 3 Xrotation Yrotation Zrotation
											JOINT mixamorig:LeftHandMiddle4
											{
												OFFSET 2.952896 0.000000 0.000000
												CHANNELS 3 Xrotation Yrotation Zrotation
												End Site
												{
													OFFSET 2.952904 0.000000 0.000165
												}
											}
										}
									}
								}
								JOINT mixamorig:LeftHandRing1
								{
									OFFSET 9.104500 -0.042999 -1.865101
									CHANNELS 6 Xposition Yposition Zposition Xrotation Yrotation Zrotation
									JOINT mixamorig:LeftHandRing2
									{
										OFFSET 3.149994 0.000000 0.000000
										CHANNELS 3 Xrotation Yrotation Zrotation
										JOINT mixamorig:LeftHandRing3
										{
											OFFSET 2.950005 0.000000 0.000000
											CHANNELS 3 Xrotation Yrotation Zrotation
											JOINT mixamorig:LeftHandRing4
											{
												OFFSET 2.644302 0.000000 0.000000
												CHANNELS 3 Xrotation Yrotation Zrotation
												End Site
												{
													OFFSET 2.644302 0.000000 0.000083
												}
											}
										}
									}
								}
								JOINT mixamorig:LeftHandPinky1
								{
									OFFSET 8.077805 -0.486893 -3.806302
									CHANNELS 6 Xposition Yposition Zposition Xrotation Yrotation Zrotation
									JOINT mixamorig:LeftHandPinky2
									{
										OFFSET 3.600006 0.000000 0.000000
										CHANNELS 3 Xrotation Yrotation Zrotation
										JOINT mixamorig:LeftHandPinky3
										{
											OFFSET 2.099998 0.000000 0.000000
											CHANNELS 3 Xrotation Yrotation Zrotation
											JOINT mixamorig:LeftHandPinky4
											{
												OFFSET 2.125496 0.000000 0.000000
												CHANNELS 3 Xrotation Yrotation Zrotation
												End Site
												{
													OFFSET 2.125504 0.000000 -0.001254
												}
											}
										}
									}
								}
							}
						}
					}
				}
			}
		}
	}
	JOINT mixamorig:RightUpLeg
	{
		OFFSET -8.207800 -6.751701 -1.599544
		CHANNELS 6 Xposition Yposition Zposition Xrotation Yrotation Zrotation
		JOINT mixamorig:RightLeg
		{
			OFFSET 0.000004 -44.370152 0.345934
			CHANNELS 3 Xrotation Yrotation Zrotation
			JOINT mixamorig:RightFoot
			{
				OFFSET 0.000004 -44.423664 -3.043535
				CHANNELS 3 Xrotation Yrotation Zrotation
				JOINT mixamorig:RightToeBase
				{
					OFFSET 0.000001 -8.728691 10.710592
					CHANNELS 3 Xrotation Yrotation Zrotation
					JOINT mixamorig:RightToe_End
					{
						OFFSET 0.000000 -0.000665 9.278101
						CHANNELS 3 Xrotation Yrotation Zrotation
						End Site
						{
							OFFSET 0.000000 -0.000665 9.278103
						}
					}
				}
			}
		}
	}
	JOINT mixamorig:LeftUpLeg
	{
		OFFSET 8.207800 -6.751701 -1.599544
		CHANNELS 6 Xposition Yposition Zposition Xrotation Yrotation Zrotation
		JOINT mixamorig:LeftLeg
		{
			OFFSET 0.000004 -44.370037 0.346940
			CHANNELS 3 Xrotation Yrotation Zrotation
			JOINT mixamorig:LeftFoot
			{
				OFFSET 0.000004 -44.423611 -3.044388
				CHANNELS 3 Xrotation Yrotation Zrotation
				JOINT mixamorig:LeftToeBase
				{
					OFFSET 0.000001 -8.728690 10.710592
					CHANNELS 3 Xrotation Yrotation Zrotation
					JOINT mixamorig:LeftToe_End
					{
						OFFSET 0.000000 -0.000680 9.278101
						CHANNELS 3 Xrotation Yrotation Zrotation
						End Site
						{
							OFFSET 0.000000 -0.000680 9.278101
						}
					}
				}
			}
		}
	}
}
MOTION
Frames: 4
Frame Time: 0.033333
1.306601 99.793297 1.840828 15.602099 23.011604 -12.678996 -0.000003 10.181546 0.131524 6.246650 11.156669 5.135691 1.122184 2.864769 0.578874 1.144856 2.851964 0.580831 -0.000002 16.740366 -2.049013 -4.856810 -2.102643 -0.060828 0.000001 9.617845 1.684974 -12.189198 -17.412457 2.750607 -0.000000 22.037384 7.501073 -0.000001 0.000002 0.000000 -4.570000 11.014862 -2.160835 6.830374 -2.042141 14.658751 4.952082 17.937084 54.324524 -0.000004 6.393898 -0.000001 -15.744722 14.176004 13.604674 -2.464800 -1.573993 2.681910 -7.624580 18.944592 -14.577176 34.599440 -41.804371 20.656978 -2.646280 -1.527816 1.527822 5.366645 -9.310044 -14.713944 -1.994591 -1.151584 1.151571 -0.000001 0.000005 0.000003 -9.108291 -0.517882 2.259805 -1.670739 1.050054 23.247121 2.596184 -4.177210 63.709027 0.591000 -2.272478 29.152432 0.000000 -0.000000 -0.000001 -9.532496 0.000011 0.000001 -3.312507 -1.302885 47.938991 1.932795 -3.778589 54.168267 2.279063 -4.005395 59.266419 0.000002 0.000000 0.000001 -9.103589 -0.043113 -1.865098 0.455789 -4.918919 53.186062 1.457201 -3.385478 46.567130 2.673663 -4.214501 64.767747 -0.000000 0.000000 -0.000000 -8.076699 -0.486719 -3.806298 -0.466206 -3.742501 45.684280 1.394691 -3.325280 45.499083 0.591742 -2.273815 29.171065 -0.000005 -0.000004 -0.000000 4.570399 11.014667 -2.160807 -0.159638 -7.433393 -19.418117 -28.127228 -9.077117 -57.083316 -0.000002 -1.934587 0.000001 30.512057 -4.353809 -2.352014 2.466094 -1.576196 2.681702 4.324134 5.394864 5.995367 15.219941 9.120340 7.739327 2.647896 -1.528763 1.528754 -12.976006 2.094859 14.919018 1.998924 -1.154086 1.154086 0.000000 0.000004 0.000003 9.109301 -0.518016 2.259900 0.163330 -2.229533 -10.599349 1.196141 3.548979 -37.243522 0.031437 0.606833 -5.932414 0.000000 0.000000 0.000003 9.533393 0.000008 0.000000 -0.083022 3.131824 -21.976905 1.052897 3.352557 -34.864011 0.212988 1.566914 -15.481650 0.000001 -0.000000 0.000002 9.104498 -0.043000 -1.865102 1.271803 6.152838 -26.508517 1.407023 3.809918 -40.528758 0.459528 2.276403 -22.823997 0.000000 0.000000 -0.000000 8.077802 -0.486896 -3.806301 -1.001092 3.922944 -30.724619 1.059556 3.362069 -34.977617 0.644040 2.672462 -27.095837 0.000001 0.000000 -0.000002 -8.207801 -6.751699 -1.599539 -15.795793 -5.813889 4.087441 20.329534 -9.353048 2.753516 -19.228436 -20.409976 1.617421 5.779324 -0.000003 -0.000000 -0.000000 0.000000 0.000000 8.207796 -6.751704 -1.599546 -43.359386 -4.669939 2.389360 66.650352 6.191128 4.585960 9.472672 -0.441280 -13.534704 -2.245135 0.000007 -0.000012 -0.000004 0.000001 0.000004 
1.436155 100.082527 5.633340 16.233282 23.367766 -10.595444 -0.000001 10.181555 0.131515 9.194642 14.467264 2.369597 1.899466 3.836063 0.804750 1.932832 3.838735 0.723046 0.000002 16.740398 -2.049019 -5.146627 -2.349730 -0.301877 -0.000001 9.617856 1.684976 -17.391490 -18.897943 2.672617 -0.000004 22.037354 7.501078 -0.000001 0.000001 0.000000 -4.569999 11.014886 -2.160834 5.316822 1.825426 9.385967 5.363326 18.908276 55.605390 -0.000005 9.168948 0.000007 -14.695323 14.259962 14.760297 -2.464799 -1.573997 2.681913 -7.477334 19.065163 -14.534149 34.488699 -41.638715 20.617071 -2.646284 -1.527825 1.527814 5.337515 -9.100918 -14.670490 -1.994583 -1.151586 1.151574 0.000003 -0.000004 -0.000000 -9.108309 -0.517863 2.259803 -1.665768 1.193861 23.174565 2.579997 -4.169194 63.486328 0.582510 -2.257202 28.937633 0.000003 0.000000 0.000002 -9.532511 0.000008 -0.000000 -3.319688 -1.260937 47.714213 1.918040 -3.767911 53.943970 2.233160 -3.977788 58.606787 -0.000002 0.000000 0.000001 -9.103605 -0.043107 -1.865099 0.323145 -4.829313 53.403060 1.441867 -3.370903 46.306920 2.594268 -4.176256 63.682334 0.000001 0.000000 -0.000001 -8.076708 -0.486721 -3.806299 -0.820539 -4.301936 46.434474 1.376007 -3.306852 45.176135 0.581520 -2.255405 28.912331 0.000001 0.000005 -0.000001 4.570403 11.014680 -2.160815 0.005408 -8.559817 -19.139807 -25.164891 -6.339504 -53.692660 -0.000030 -1.660648 -0.000016 36.366697 -0.891174 -8.435141 2.466124 -1.576205 2.681702 4.276688 5.224732 5.944933 15.240459 9.236533 7.665520 2.647876 -1.528765 1.528751 -12.791861 1.886907 14.564473 1.998921 -1.154042 1.154081 0.000003 0.000002 0.000001 9.109296 -0.518012 2.259900 0.124853 -2.152844 -11.405906 1.258780 3.629735 -38.244114 0.031906 0.611293 -5.976066 0.000001 0.000001 0.000001 9.533407 0.000006 0.000000 -0.065680 3.230479 -22.782931 1.099513 3.418373 -35.653389 0.217161 1.581904 -15.633606 -0.000002 0.000001 -0.000000 9.104522 -0.043002 -1.865102 1.310206 6.188330 -27.305898 1.472959 3.885541 -41.511192 0.465365 2.290235 -22.970838 -0.000000 -0.000000 0.000001 8.077798 -0.486884 -3.806301 -1.015969 3.954657 -31.581415 1.118682 3.444907 -35.973660 0.648979 2.682073 -27.201462 0.000002 -0.000000 -0.000000 -8.207799 -6.751707 -1.599550 -12.898274 -6.140467 2.880074 17.501632 -9.655517 2.065123 -18.848252 -19.640187 1.754212 4.339500 -0.000543 0.231458 0.000000 -0.000000 0.000000 8.207798 -6.751703 -1.599560 -48.662492 -1.336814 -2.418279 57.480099 7.080657 1.221032 8.590552 -0.402056 -15.269649 -10.163619 -0.016076 1.243780 0.000002 -0.000000 0.000004 
1.655684 100.155098 9.654287 17.957814 23.087342 -9.184622 -0.000001 10.181559 0.131526 11.866824 17.453971 -1.068673 2.763979 4.824026 1.412763 2.800514 4.946798 1.381702 -0.000000 16.740377 -2.049019 -5.686096 -2.504008 -0.341973 0.000001 9.617851 1.684982 -23.916134 -20.227585 0.787294 -0.000003 22.037354 7.501070 -0.000000 0.000001 0.000000 -4.569998 11.014868 -2.160835 4.693158 4.633620 5.797689 6.433943 19.416778 53.014958 0.000000 12.066377 0.000011 -11.726977 15.125114 15.405287 -2.464808 -1.573999 2.681905 -7.073976 19.397940 -14.419334 34.178991 -41.189835 20.512146 -2.646262 -1.527806 1.527814 5.251025 -8.530378 -14.537494 -1.994583 -1.151581 1.151573 0.000001 0.000000 -0.000000 -9.108315 -0.517864 2.259800 -1.650265 1.587533 22.975348 2.535783 -4.146908 62.876795 0.559565 -2.215237 28.349714 -0.000001 0.000000 0.000001 -9.532515 0.000005 -0.000005 -3.338134 -1.146901 47.105260 1.877861 -3.738388 53.330004 2.108124 -3.898932 56.786486 0.000000 0.000000 0.000001 -9.103605 -0.043111 -1.865102 -0.035386 -4.594646 53.984354 1.400663 -3.331133 45.601837 2.380771 -4.063979 60.711707 -0.000000 0.000000 0.000000 -8.076713 -0.486714 -3.806302 -1.687117 -5.819737 48.391569 1.326567 -3.257032 44.312102 0.554225 -2.205311 28.211236 0.000001 0.000002 0.000002 4.570406 11.014690 -2.160816 -0.340068 -11.070681 -18.435387 -20.819149 -4.861373 -50.847251 0.000006 -2.468544 -0.000009 46.769399 0.021909 -15.325898 2.466102 -1.576201 2.681699 4.144476 4.752172 5.804016 15.293029 9.559574 7.460646 2.647877 -1.528755 1.528738 -12.281093 1.295270 13.586424 1.998921 -1.154068 1.154083 -0.000001 0.000003 -0.000002 9.109291 -0.518011 2.259899 0.020395 -1.950604 -13.648061 1.440197 3.848287 -41.025432 0.033199 0.623650 -6.097363 -0.000001 0.000002 0.000003 9.533391 0.000005 -0.000005 -0.009578 3.500921 -25.008090 1.233789 3.597871 -37.847499 0.229039 1.623745 -16.058388 0.000000 0.000000 -0.000000 9.104496 -0.043001 -1.865102 1.415841 6.283867 -29.488782 1.661567 4.088255 -44.223498 0.481820 2.328632 -23.378920 0.000002 -0.000001 -0.000000 8.077807 -0.486889 -3.806302 -1.055743 4.042414 -33.902921 1.287848 3.666250 -38.701078 0.662684 2.708556 -27.493011 -0.000000 0.000001 0.000000 -8.207800 -6.751703 -1.599542 -11.132277 -6.103735 1.863112 14.794618 -9.722378 1.660360 -18.179033 -19.098792 1.785262 2.535265 -0.001332 0.363051 0.000000 -0.000001 -0.000000 8.207801 -6.751702 -1.599539 -50.012923 0.549771 -6.240556 38.792688 7.001932 -1.960694 6.615592 -0.167261 -17.102027 -3.512602 -0.000003 -0.000002 0.000000 0.000001 -0.000001 
1.933472 98.947250 15.648882 19.459330 21.643935 -7.642698 -0.000001 10.181553 0.131524 10.174425 19.164852 -4.910208 5.347609 5.651824 2.045675 5.263950 5.756325 2.169671 -0.000009 16.740353 -2.049017 -5.999100 -2.606743 0.208762 -0.000000 9.617854 1.684986 -28.304584 -20.562281 0.889116 0.000005 22.037399 7.501068 -0.000001 -0.000000 0.000000 -4.570003 11.014874 -2.160839 4.585523 6.079379 3.730589 7.280914 20.113761 48.334261 -0.000012 14.725056 0.000015 -7.908959 16.496611 14.894594 -2.464802 -1.573980 2.681911 -6.470137 19.902577 -14.255965 33.725838 -40.517211 20.365981 -2.646261 -1.527824 1.527817 5.121777 -7.677748 -14.336997 -1.994579 -1.151583 1.151562 0.000003 0.000000 -0.000002 -9.108296 -0.517881 2.259801 -1.621842 2.175882 22.675781 2.470175 -4.112722 61.965785 0.526092 -2.152069 27.471000 0.000000 0.000000 0.000001 -9.532507 0.000007 -0.000001 -3.362538 -0.977844 46.207623 1.818380 -3.693467 52.412409 1.924135 -3.772332 54.036560 -0.000000 0.000000 0.000001 -9.103603 -0.043114 -1.865099 -0.563694 -4.268020 54.827947 1.340790 -3.271514 44.562285 2.073334 -3.875969 56.273304 -0.000000 -0.000000 0.000001 -8.076698 -0.486725 -3.806301 -2.745858 -8.070097 51.121295 1.256240 -3.183492 43.060542 0.515123 -2.130879 27.177656 0.000000 -0.000000 0.000004 4.570394 11.014683 -2.160823 -0.866412 -14.402612 -17.551766 -15.281947 -1.796465 -48.023846 -0.000004 -3.827135 0.000014 52.040721 -0.223905 -21.306879 2.466111 -1.576208 2.681703 3.941884 4.032220 5.586727 15.373397 10.052198 7.147683 2.647891 -1.528750 1.528754 -11.505590 0.354671 12.116368 1.998918 -1.154065 1.154079 0.000002 0.000004 -0.000001 9.109306 -0.518012 2.259905 -0.125778 -1.639909 -17.065634 1.736766 4.163918 -45.268493 0.035241 0.642465 -6.282283 -0.000002 -0.000001 0.000000 9.533409 0.000023 0.000002 0.097864 3.903499 -28.372471 1.451535 3.861278 -41.194264 0.247893 1.687850 -16.710850 0.000001 -0.000001 -0.000001 9.104514 -0.042981 -1.865097 1.575010 6.422254 -32.752079 1.964383 4.377120 -48.324504 0.507424 2.386906 -24.001085 0.000003 0.000000 -0.000001 8.077820 -0.486892 -3.806300 -1.121809 4.183056 -37.324450 1.560001 3.981500 -42.780156 0.683641 2.748429 -27.933529 0.000002 -0.000002 -0.000002 -8.207801 -6.751706 -1.599544 -10.275579 -6.511209 0.577601 16.764488 -9.944061 2.103534 -20.937059 -16.767846 1.691249 0.673002 -0.000112 0.106086 0.000000 -0.000000 -0.000000 8.207799 -6.751695 -1.599553 -48.255485 0.079281 -8.558746 16.917861 5.773308 -3.063255 4.181696 0.190407 -18.610848 -5.848360 0.000015 0.000004 0.000001 0.000001 -0.000002 
